<svg width="274" height="211" viewBox="0 0 274 211" fill="none" xmlns="http://www.w3.org/2000/svg">
<path d="M207.5 207H258.25C264.877 207 270 201.877 270 195.25V16.25C270 9.623 264.877 4 258.25 4H16.25C9.623 4 4 9.623 4 16.25V195.25C4 201.877 9.623 207 16.25 207H70.5" stroke="white" stroke-width="7" stroke-miterlimit="10" stroke-linecap="round"/>
<path d="M139.5 82.5C149.993 82.5 158.5 73.9934 158.5 63.5C158.5 53.0066 149.993 44.5 139.5 44.5C129.007 44.5 120.5 53.0066 120.5 63.5C120.5 73.9934 129.007 82.5 139.5 82.5Z" stroke="white" stroke-width="7" stroke-miterlimit="10" stroke-linecap="round"/>
<path d="M139.653 89.311L84.167 176.968L189.423 178.043L139.653 89.311Z" stroke="white" stroke-width="9.2413" stroke-miterlimit="10" stroke-linecap="round"/>
</svg>
