<svg width="274" height="211" viewBox="0 0 274 211" fill="none" xmlns="http://www.w3.org/2000/svg">
<path d="M207.5 207H258.25C264.877 207 270 201.877 270 195.25V16.25C270 9.623 264.877 4 258.25 4H16.25C9.623 4 4 9.623 4 16.25V195.25C4 201.877 9.623 207 16.25 207H70.5" stroke="white" stroke-width="7" stroke-miterlimit="10" stroke-linecap="round"/>
<path d="M60.5 82.5C72.098 82.5 81.5 73.098 81.5 61.5C81.5 49.902 72.098 40.5 60.5 40.5C48.902 40.5 39.5 49.902 39.5 61.5C39.5 73.098 48.902 82.5 60.5 82.5Z" stroke="white" stroke-width="7" stroke-miterlimit="10" stroke-linecap="round"/>
<path d="M137.5 120.5C147.993 120.5 156.5 111.993 156.5 101.5C156.5 91.0066 147.993 82.5 137.5 82.5C127.007 82.5 118.5 91.0066 118.5 101.5C118.5 111.993 127.007 120.5 137.5 120.5Z" stroke="white" stroke-width="7" stroke-miterlimit="10" stroke-linecap="round"/>
<path d="M211.5 82.5C223.098 82.5 232.5 73.098 232.5 61.5C232.5 49.902 223.098 40.5 211.5 40.5C199.902 40.5 190.5 49.902 190.5 61.5C190.5 73.098 199.902 82.5 211.5 82.5Z" stroke="white" stroke-width="7" stroke-miterlimit="10" stroke-linecap="round"/>
<path d="M60.25 86.5L22 177H86.5L60.5 88.5" stroke="white" stroke-width="7" stroke-miterlimit="10" stroke-linecap="round"/>
<path d="M137.5 124.5L86.5 177H179.5L137.5 124.5Z" stroke="white" stroke-width="7" stroke-miterlimit="10" stroke-linecap="round"/>
<path d="M211.5 89.8831L179.5 177H242.5L211.5 89.8831Z" stroke="white" stroke-width="7" stroke-miterlimit="10" stroke-linecap="round"/>
</svg>
