<?xml version="1.0" encoding="utf-8"?>
<!-- Generator: Adobe Illustrator 16.0.0, SVG Export Plug-In . SVG Version: 6.00 Build 0)  -->
<!DOCTYPE svg PUBLIC "-//W3C//DTD SVG 1.1//EN" "http://www.w3.org/Graphics/SVG/1.1/DTD/svg11.dtd">
<svg version="1.1" id="Layer_1" xmlns="http://www.w3.org/2000/svg" xmlns:xlink="http://www.w3.org/1999/xlink" x="0px" y="0px"
	 width="512px" height="512px" viewBox="0 0 512 512" enable-background="new 0 0 512 512" xml:space="preserve">
<g id="Layer_5">
	
		<path fill="#12CCB1" stroke="#262626" stroke-width="7" stroke-linecap="round" stroke-linejoin="round" stroke-miterlimit="10" d="
		M348.5,382.5h-185c-11,0-20-9-20-20v-185c0-11,9-20,20-20h185c11,0,20,9,20,20v185C368.5,373.5,359.5,382.5,348.5,382.5z"/>
	<g>
		<g>
			
				<path fill="#FFFFFF" stroke="#262626" stroke-width="7" stroke-linecap="round" stroke-linejoin="round" stroke-miterlimit="10" d="
				M235.6,201H223c-6.9,0-12.5,5.602-12.5,12.5v3.102v103.5"/>
			
				<polyline fill="#FFFFFF" stroke="#262626" stroke-width="7" stroke-linecap="round" stroke-linejoin="round" stroke-miterlimit="10" points="
				292.1,226.1 292.1,220.3 292.1,219.8 			"/>
			
				<path fill="#FFFFFF" stroke="#262626" stroke-width="7" stroke-linecap="round" stroke-linejoin="round" stroke-miterlimit="10" d="
				M235.6,201h3.102H267h25.1h12.6c6.9,0,12.5,5.602,12.5,12.5v6.7h-25.1"/>
			
				<path fill="#FFFFFF" stroke="#262626" stroke-width="7" stroke-linecap="round" stroke-linejoin="round" stroke-miterlimit="10" d="
				M304.6,201c-6.9,0-12.6,5.602-12.6,12.5v6.3"/>
			
				<path fill="#FFFFFF" stroke="#262626" stroke-width="7" stroke-linecap="round" stroke-linejoin="round" stroke-miterlimit="10" d="
				M279.5,339c-6.9,0-12.5-5.6-12.5-12.5v-6.3h-56.5H198c-1.7,0-3.102,1.4-3.102,3.1v3.102c0,6.898,5.602,12.5,12.5,12.5L279.5,339
				c6.898-0.1,12.5-5.7,12.5-12.6V323.3v-91V226"/>
		</g>
	</g>
</g>
</svg>
