<?xml version="1.0" encoding="utf-8"?>
<!-- Generator: Adobe Illustrator 16.0.0, SVG Export Plug-In . SVG Version: 6.00 Build 0)  -->
<!DOCTYPE svg PUBLIC "-//W3C//DTD SVG 1.1//EN" "http://www.w3.org/Graphics/SVG/1.1/DTD/svg11.dtd">
<svg version="1.1" id="Layer_1" xmlns="http://www.w3.org/2000/svg" xmlns:xlink="http://www.w3.org/1999/xlink" x="0px" y="0px"
	 width="512px" height="512px" viewBox="0 0 512 512" enable-background="new 0 0 512 512" xml:space="preserve">
<g id="Layer_4">
	
		<path fill="#E51749" stroke="#262626" stroke-width="7" stroke-linecap="round" stroke-linejoin="round" stroke-miterlimit="10" d="
		M348,382.5H163c-11,0-20-9-20-20v-185c0-11,9-20,20-20h185c11,0,20,9,20,20v185C368,373.5,359.1,382.5,348,382.5z"/>
	<g>
		
			<path fill="#FFFFFF" stroke="#262626" stroke-width="7" stroke-linecap="round" stroke-linejoin="round" stroke-miterlimit="10" d="
			M303.198,254.7v48c0,21.7-17.6,39.3-39.3,39.3h-16.8c-21.7,0-39.3-17.6-39.3-39.3v-47.4"/>
		
			<path fill="#FFFFFF" stroke="#262626" stroke-width="7" stroke-linecap="round" stroke-linejoin="round" stroke-miterlimit="10" d="
			M207.9,255.3V209.9c0-6.602,5.302-11.9,11.9-11.9l0,0c6.6,0,11.9,5.3,11.9,11.9V255.3"/>
		
			<path fill="#FFFFFF" stroke="#262626" stroke-width="7" stroke-linecap="round" stroke-linejoin="round" stroke-miterlimit="10" d="
			M279.4,255.3V209.9c0-6.602,5.302-11.9,11.9-11.9l0,0c6.6,0,11.898,5.3,11.898,11.9V255.3"/>
		
			<path fill="#FFFFFF" stroke="#262626" stroke-width="7" stroke-linecap="round" stroke-linejoin="round" stroke-miterlimit="10" d="
			M231.7,267.6v-22.2c0-6.602,5.3-11.9,11.898-11.9l0,0c6.602,0,11.9,5.3,11.9,11.9v6.1"/>
		
			<path fill="#FFFFFF" stroke="#262626" stroke-width="7" stroke-linecap="round" stroke-linejoin="round" stroke-miterlimit="10" d="
			M255.5,269.3V245.4c0-6.602,5.3-11.9,11.898-11.9l0,0c6.602,0,11.9,5.3,11.9,11.9v29c0,6.6-5.3,11.898-11.9,11.898l0,0
			c-2.5,0-4.8-0.8-6.698-2"/>
		
			<path fill="#FFFFFF" stroke="#262626" stroke-width="7" stroke-linecap="round" stroke-linejoin="round" stroke-miterlimit="10" d="
			M207.9,281.6c0-7.7,6.302-14,14-14H249.5c6.6,0,11.898,5.3,11.898,11.898l0,0c0,6.602-5.3,11.9-11.898,11.9H230.9"/>
		
			<path fill="#FFFFFF" stroke="#262626" stroke-width="7" stroke-linecap="round" stroke-linejoin="round" stroke-miterlimit="10" d="
			M244.6,291.4c7.102,0,12.9,5.8,12.9,12.898v8.4"/>
	</g>
</g>
</svg>
