<?xml version="1.0" encoding="utf-8"?>
<!-- Generator: Adobe Illustrator 16.0.0, SVG Export Plug-In . SVG Version: 6.00 Build 0)  -->
<!DOCTYPE svg PUBLIC "-//W3C//DTD SVG 1.1//EN" "http://www.w3.org/Graphics/SVG/1.1/DTD/svg11.dtd">
<svg version="1.1" id="Layer_1" xmlns="http://www.w3.org/2000/svg" xmlns:xlink="http://www.w3.org/1999/xlink" x="0px" y="0px"
	 width="512px" height="512px" viewBox="0 0 512 512" enable-background="new 0 0 512 512" xml:space="preserve">
<g id="Layer_6">
	
		<path fill="#FF8DC6" stroke="#262626" stroke-width="7" stroke-linecap="round" stroke-linejoin="round" stroke-miterlimit="10" d="
		M348,368.5H163c-11,0-20-9-20-20v-185c0-11,9-20,20-20h185c11,0,20,9,20,20v185C368,359.5,359,368.5,348,368.5z"/>
	<g id="scissor_1_">
		
			<line fill="none" stroke="#262626" stroke-width="7" stroke-linecap="round" stroke-linejoin="round" stroke-miterlimit="10" x1="257.3" y1="282.2" x2="268.5" y2="295.3"/>
		
			<path fill="#FFFFFF" stroke="#262626" stroke-width="7" stroke-linecap="round" stroke-linejoin="round" stroke-miterlimit="10" d="
			M255.5,244.5L208.1,184c-8.3,15.2-6.1,34.603,5.3,47.103L240.5,262.5"/>
		
			<line fill="none" stroke="#262626" stroke-width="7" stroke-linecap="round" stroke-linejoin="round" stroke-miterlimit="10" x1="284.9" y1="282.2" x2="271.8" y2="265.5"/>
		
			<path fill="#FFFFFF" stroke="#262626" stroke-width="7" stroke-linecap="round" stroke-linejoin="round" stroke-miterlimit="10" d="
			M227.6,282.2l76.8-98.2c8.3,15.2,6.103,34.603-5.3,47.103L242.2,298.5"/>
		
			<path fill="#FFFFFF" stroke="#262626" stroke-width="7" stroke-linecap="round" stroke-linejoin="round" stroke-miterlimit="10" d="
			M257.1,260.9c0.9,0,1.603,0.7,1.603,1.6c0,0.9-0.7,1.603-1.603,1.603c-0.897,0-1.6-0.7-1.6-1.603
			C255.5,261.6,256.2,260.9,257.1,260.9"/>
		
			<circle fill="#FFFFFF" stroke="#262626" stroke-width="7" stroke-linecap="round" stroke-linejoin="round" stroke-miterlimit="10" cx="219.5" cy="305.1" r="22.9"/>
		
			<circle fill="#FFFFFF" stroke="#262626" stroke-width="7" stroke-linecap="round" stroke-linejoin="round" stroke-miterlimit="10" cx="219.5" cy="305.1" r="9.8"/>
		
			<circle fill="#FFFFFF" stroke="#262626" stroke-width="7" stroke-linecap="round" stroke-linejoin="round" stroke-miterlimit="10" cx="291.5" cy="305.1" r="22.9"/>
		
			<circle fill="#FFFFFF" stroke="#262626" stroke-width="7" stroke-linecap="round" stroke-linejoin="round" stroke-miterlimit="10" cx="291.5" cy="305.1" r="9.8"/>
	</g>
</g>
</svg>
