<svg width="2398" height="1189" viewBox="0 0 2398 1189" fill="none" xmlns="http://www.w3.org/2000/svg">
<path d="M1460.03 1002.57C1460.03 978.662 1479.41 959.281 1503.32 959.281H1935.5C1959.4 959.281 1978.78 978.662 1978.78 1002.57V1002.57C1978.78 1026.48 1959.4 1045.86 1935.5 1045.86H1503.32C1479.41 1045.86 1460.03 1026.48 1460.03 1002.57V1002.57Z" fill="#8B940C"/>
<path d="M1651.44 865.777C1651.44 842.188 1670.56 823.065 1694.15 823.065H1994.8C2018.39 823.065 2037.51 842.188 2037.51 865.777V865.777C2037.51 889.366 2018.39 908.488 1994.8 908.488H1694.15C1670.56 908.488 1651.44 889.366 1651.44 865.777V865.777Z" fill="#8B940C"/>
<ellipse cx="1877.64" cy="451.358" rx="40.2386" ry="42.7117" fill="#8B940C"/>
<ellipse cx="1692.22" cy="1146.29" rx="40.7824" ry="42.7116" fill="#8B940C"/>
<ellipse cx="1373.03" cy="998.529" rx="40.2386" ry="42.7116" fill="#DFEE0C"/>
<ellipse cx="597.621" cy="1146.29" rx="40.2386" ry="42.7116" fill="#8B940C"/>
<path d="M508.444 1002.57C508.444 978.662 527.825 959.281 551.733 959.281H992.607C1016.51 959.281 1035.9 978.662 1035.9 1002.57V1002.57C1035.9 1026.48 1016.51 1045.86 992.607 1045.86H551.733C527.825 1045.86 508.444 1026.48 508.444 1002.57V1002.57Z" fill="#8B940C"/>
<path d="M1325.18 1146.29C1325.18 1122.7 1344.3 1103.58 1367.89 1103.58H1548.91C1572.5 1103.58 1591.62 1122.7 1591.62 1146.29V1146.29C1591.62 1169.88 1572.5 1189 1548.91 1189H1367.89C1344.3 1189 1325.18 1169.88 1325.18 1146.29V1146.29Z" fill="#8B940C"/>
<path d="M694.411 1146.29C694.411 1122.7 713.534 1103.58 737.123 1103.58H1225.92C1249.5 1103.58 1268.63 1122.7 1268.63 1146.29V1146.29C1268.63 1169.88 1249.5 1189 1225.92 1189H737.123C713.534 1189 694.411 1169.88 694.411 1146.29V1146.29Z" fill="#8B940C"/>
<path d="M1082.66 998.529C1082.66 974.94 1101.78 955.817 1125.37 955.817H1243.32C1266.91 955.817 1286.03 974.94 1286.03 998.529V998.529C1286.03 1022.12 1266.91 1041.24 1243.32 1041.24H1125.37C1101.78 1041.24 1082.66 1022.12 1082.66 998.529V998.529Z" fill="#8B940C"/>
<path d="M297.463 1146.29C297.463 1122.7 316.586 1103.58 340.174 1103.58H458.119C481.708 1103.58 500.831 1122.7 500.831 1146.29V1146.29C500.831 1169.88 481.708 1189 458.119 1189H340.174C316.586 1189 297.463 1169.88 297.463 1146.29V1146.29Z" fill="#DFEE0C"/>
<path d="M1794.99 728.407C1794.99 704.818 1814.11 685.695 1837.7 685.695H1954.56C1978.15 685.695 1997.27 704.818 1997.27 728.407V728.407C1997.27 751.996 1978.15 771.118 1954.56 771.118H1837.7C1814.11 771.118 1794.99 751.996 1794.99 728.407V728.407Z" fill="#DFEE0C"/>
<path d="M1808.04 592.768C1808.04 568.861 1827.42 549.48 1851.33 549.48H2292.21C2316.11 549.48 2335.49 568.861 2335.49 592.768V592.768C2335.49 616.676 2316.11 636.057 2292.21 636.057H1851.33C1827.42 636.057 1808.04 616.676 1808.04 592.768V592.768Z" fill="#8B940C"/>
<path d="M1806.95 315.143C1806.95 291.554 1826.08 272.431 1849.67 272.431H2153.58C2177.17 272.431 2196.29 291.554 2196.29 315.143V315.143C2196.29 338.732 2177.17 357.854 2153.58 357.854H1849.67C1826.08 357.854 1806.95 338.732 1806.95 315.143V315.143Z" fill="#DFEE0C"/>
<path d="M1866.77 42.7116C1866.77 19.1227 1885.89 0 1909.48 0H2165.54C2189.13 0 2208.25 19.1227 2208.25 42.7116V42.7116C2208.25 66.3006 2189.13 85.4233 2165.54 85.4233H1909.48C1885.89 85.4233 1866.77 66.3006 1866.77 42.7116V42.7116Z" fill="#DFEE0C"/>
<path d="M1952.68 451.358C1952.68 427.769 1971.81 408.647 1995.4 408.647H2292.78C2316.37 408.647 2335.49 427.769 2335.49 451.358V451.358C2335.49 474.947 2316.37 494.07 2292.78 494.07H1995.4C1971.81 494.07 1952.68 474.947 1952.68 451.358V451.358Z" fill="#8B940C"/>
<path d="M1952.68 173.733C1952.68 149.825 1972.06 130.444 1995.97 130.444H2218.25C2242.16 130.444 2261.54 149.825 2261.54 173.733V173.733C2261.54 197.64 2242.16 217.021 2218.25 217.021H1995.97C1972.06 217.021 1952.68 197.64 1952.68 173.733V173.733Z" fill="#8B940C"/>
<ellipse cx="571.52" cy="181.236" rx="40.2386" ry="42.7116" fill="#8B940C"/>
<path d="M299.638 863.468C299.638 838.604 319.794 818.448 344.658 818.448H667.879C692.743 818.448 712.899 838.604 712.899 863.468V863.468C712.899 888.332 692.743 908.488 667.879 908.488H344.658C319.794 908.488 299.638 888.332 299.638 863.468V863.468Z" fill="#DFEE0C"/>
<path d="M65.8188 731.293C65.8188 707.385 85.1999 688.004 109.108 688.004H551.069C574.977 688.004 594.358 707.385 594.358 731.293V731.293C594.358 755.2 574.977 774.582 551.07 774.582H109.108C85.2 774.582 65.8188 755.2 65.8188 731.293V731.293Z" fill="#8B940C"/>
<path d="M65.8188 453.667C65.8188 430.078 84.9415 410.955 108.531 410.955H412.443C436.032 410.955 455.155 430.078 455.155 453.667V453.667C455.155 477.256 436.032 496.379 412.443 496.379H108.53C84.9415 496.379 65.8188 477.256 65.8188 453.667V453.667Z" fill="#DFEE0C"/>
<path d="M125.633 181.236C125.633 157.647 144.756 138.524 168.345 138.524H424.406C447.995 138.524 467.118 157.647 467.118 181.236V181.236C467.118 204.825 447.995 223.948 424.406 223.948H168.345C144.756 223.948 125.633 204.825 125.633 181.236V181.236Z" fill="#DFEE0C"/>
<path d="M211.548 589.883C211.548 566.294 230.67 547.171 254.259 547.171H477.695C501.284 547.171 520.406 566.294 520.406 589.883V589.883C520.406 613.471 501.284 632.594 477.695 632.594H254.259C230.67 632.594 211.548 613.471 211.548 589.883V589.883Z" fill="#8B940C"/>
<path d="M211.548 312.257C211.548 288.349 230.929 268.968 254.837 268.968H477.118C501.025 268.968 520.406 288.349 520.406 312.257V312.257C520.406 336.165 501.025 355.546 477.118 355.546H254.837C230.929 355.546 211.548 336.165 211.548 312.257V312.257Z" fill="#8B940C"/>
</svg>
