<?xml version="1.0" encoding="utf-8"?>
<!-- Generator: Adobe Illustrator 16.0.0, SVG Export Plug-In . SVG Version: 6.00 Build 0)  -->
<!DOCTYPE svg PUBLIC "-//W3C//DTD SVG 1.1//EN" "http://www.w3.org/Graphics/SVG/1.1/DTD/svg11.dtd">
<svg version="1.1" id="Layer_1" xmlns="http://www.w3.org/2000/svg" xmlns:xlink="http://www.w3.org/1999/xlink" x="0px" y="0px"
	 width="512px" height="512px" viewBox="0 0 512 512" enable-background="new 0 0 512 512" xml:space="preserve">
<g id="Layer_5">
	<g>
		<g>
			<path fill="#FFFFFF" d="M201.2,411.8v-31.5c0-1.1,0.6-1.8,1.8-1.8h6.399c5.5,0,8.2,3,8.2,8.7v3.4c0,5.6-2.7,8.699-8.2,8.699h-2.6
				v12.5c0,1.101-0.6,1.801-1.8,1.801h-2C201.8,413.5,201.2,412.9,201.2,411.8z M209.3,394.3c1.8,0,2.7-0.8,2.7-3.3v-4.2
				c0-2.5-0.9-3.3-2.7-3.3h-2.6v10.8H209.3z"/>
			<path fill="#FFFFFF" d="M222.4,412c0-0.1,0-0.2,0-0.5L227.7,380c0.1-1,0.8-1.6,1.899-1.6h4.3c1,0,1.7,0.5,1.9,1.6l5.3,31.5
				c0.101,0.3,0.101,0.3,0.101,0.5c0,0.9-0.601,1.5-1.7,1.5h-1.9c-1.1,0-1.8-0.5-1.899-1.6l-0.801-5.3v0.1h-6.5l-0.8,5.3
				c-0.2,1.101-0.899,1.601-1.899,1.601h-1.5C223,413.5,222.4,413,222.4,412z M234.1,401.9l-2.6-17.3H231.4l-2.5,17.3H234.1z"/>
			<path fill="#FFFFFF" d="M248.8,411.8v-31.5c0-1.1,0.6-1.8,1.8-1.8h6.4c5.5,0,8.2,3,8.2,8.7v3.4c0,5.6-2.7,8.699-8.2,8.699H254.4
				v12.5c0,1.101-0.6,1.801-1.8,1.801h-2C249.4,413.5,248.8,412.9,248.8,411.8z M256.9,394.3c1.801,0,2.7-0.8,2.7-3.3v-4.2
				c0-2.5-1-3.3-2.7-3.3h-2.6v10.8H256.9z"/>
			<path fill="#FFFFFF" d="M273.1,411.8v-31.5c0-1.1,0.601-1.8,1.8-1.8h11.5c1.101,0,1.801,0.601,1.801,1.8v1.5
				c0,1.101-0.7,1.801-1.801,1.801h-7.8v9.3h5.8c1.101,0,1.801,0.7,1.801,1.8v1.5c0,1.1-0.7,1.8-1.801,1.8h-5.8v10.8h7.8
				c1.101,0,1.801,0.7,1.801,1.801v1.5c0,1.1-0.7,1.8-1.801,1.8h-11.5C273.7,413.5,273.1,412.9,273.1,411.8z"/>
			<path fill="#FFFFFF" d="M296.2,411.8v-31.5c0-1.1,0.6-1.8,1.8-1.8h6.399c5.7,0,8.2,2.601,8.2,8v2.2c0,3.6-1.2,5.9-3.6,6.9v0.1
				c2.8,0.9,3.699,3.5,3.699,7.4v6.199c0,0.9,0,1.7,0.2,2.4c0,0.3,0.101,0.4,0.101,0.7c0,0.8-0.5,1.3-1.5,1.3h-2.2
				c-1,0-1.8-0.5-1.9-1.5c-0.1-0.6-0.1-1.4-0.1-2.8V403c0-3.3-1-4.3-3.5-4.3h-1.9V412c0,1.101-0.7,1.8-1.8,1.8h-2
				C296.9,413.5,296.2,412.9,296.2,411.8z M303.699,393.5c2,0,3.301-0.899,3.301-3.7V387.1c0-2.5-0.801-3.601-2.801-3.601h-2.5v10
				H303.699L303.699,393.5z"/>
		</g>
	</g>
	
		<path fill="#12CCB1" stroke="#262626" stroke-width="7" stroke-linecap="round" stroke-linejoin="round" stroke-miterlimit="10" d="
		M349.5,327.5h-185c-11,0-20-9-20-20v-185c0-11,9-20,20-20h185c11,0,20,9,20,20v185C369.5,318.5,360.5,327.5,349.5,327.5z"/>
	<g>
		<g>
			
				<path fill="#FFFFFF" stroke="#262626" stroke-width="7" stroke-linecap="round" stroke-linejoin="round" stroke-miterlimit="10" d="
				M236.6,146H224c-6.9,0-12.5,5.601-12.5,12.5v3.101v103.5"/>
			
				<polyline fill="#FFFFFF" stroke="#262626" stroke-width="7" stroke-linecap="round" stroke-linejoin="round" stroke-miterlimit="10" points="
				293.1,171.1 293.1,165.3 293.1,164.8 			"/>
			
				<path fill="#FFFFFF" stroke="#262626" stroke-width="7" stroke-linecap="round" stroke-linejoin="round" stroke-miterlimit="10" d="
				M236.6,146h3.101H268h25.1h12.6c6.9,0,12.5,5.601,12.5,12.5v6.7h-25.1"/>
			
				<path fill="#FFFFFF" stroke="#262626" stroke-width="7" stroke-linecap="round" stroke-linejoin="round" stroke-miterlimit="10" d="
				M305.6,146c-6.9,0-12.6,5.601-12.6,12.5v6.3"/>
			
				<path fill="#FFFFFF" stroke="#262626" stroke-width="7" stroke-linecap="round" stroke-linejoin="round" stroke-miterlimit="10" d="
				M280.5,284c-6.9,0-12.5-5.6-12.5-12.5v-6.3h-56.5H199c-1.7,0-3.101,1.4-3.101,3.1v3.101c0,6.899,5.601,12.5,12.5,12.5L280.5,284
				c6.899-0.1,12.5-5.7,12.5-12.6V268.3v-91V171"/>
		</g>
	</g>
</g>
</svg>
