<?xml version="1.0" encoding="utf-8"?>
<!-- Generator: Adobe Illustrator 16.0.0, SVG Export Plug-In . SVG Version: 6.00 Build 0)  -->
<!DOCTYPE svg PUBLIC "-//W3C//DTD SVG 1.1//EN" "http://www.w3.org/Graphics/SVG/1.1/DTD/svg11.dtd">
<svg version="1.1" id="Layer_1" xmlns="http://www.w3.org/2000/svg" xmlns:xlink="http://www.w3.org/1999/xlink" x="0px" y="0px"
	 width="512px" height="512px" viewBox="0 0 512 512" enable-background="new 0 0 512 512" xml:space="preserve">
<g id="Layer_4">
	<g>
		<path fill="#FFFFFF" d="M210.5,411.8v-31.5c0-1.1,0.6-1.8,1.8-1.8h6.4c5.699,0,8.199,2.601,8.199,8v2.2c0,3.6-1.1,5.9-3.6,6.9v0.1
			c2.8,0.9,3.7,3.5,3.7,7.4v6.199c0,0.9,0,1.7,0.1,2.4c0,0.3,0.101,0.4,0.101,0.7c0,0.8-0.601,1.3-1.5,1.3h-2.2
			c-1,0-1.8-0.5-1.9-1.5c-0.1-0.6-0.1-1.4-0.1-2.8V403c0-3.3-1-4.3-3.5-4.3h-2V412c0,1.101-0.601,1.8-1.8,1.8h-2
			C211.2,413.5,210.5,412.9,210.5,411.8z M218,393.5c2,0,3.3-0.899,3.3-3.7V387.1c0-2.5-0.8-3.601-2.8-3.601H216v10H218L218,393.5z"
			/>
		<path fill="#FFFFFF" d="M235.3,405.2v-18.4c0-5.6,3-8.8,8.4-8.8c5.399,0,8.399,3.2,8.399,8.8v18.4c0,5.6-3,8.8-8.399,8.8
			C238.3,414,235.3,410.8,235.3,405.2z M246.5,405.6V386.5c0-2.5-1.101-3.399-2.9-3.399S240.7,384,240.7,386.5V405.6
			c0,2.5,1.1,3.399,2.899,3.399S246.5,408.1,246.5,405.6z"/>
		<path fill="#FFFFFF" d="M260.3,405.4v-18.8c0-5.4,2.8-8.601,8.1-8.601c5.301,0,8.101,3.2,8.101,8.601v2c0,1.1-0.601,1.8-1.8,1.8
			H273c-1.101,0-1.8-0.601-1.8-1.8V386.3c0-2.3-1.101-3.3-2.801-3.3c-1.699,0-2.8,0.9-2.8,3.3V405.9c0,2.3,1.101,3.2,2.8,3.2
			c1.601,0,2.801-0.9,2.801-3.2V402.3c0-1.1,0.6-1.8,1.8-1.8h1.7c1.1,0,1.8,0.601,1.8,1.8v3.2c0,5.4-2.8,8.601-8.101,8.601
			C263.1,414.1,260.3,410.8,260.3,405.4z"/>
		<path fill="#FFFFFF" d="M284.8,411.8v-31.5c0-1.1,0.6-1.8,1.8-1.8h2c1.101,0,1.8,0.601,1.8,1.8v13L297,379.8
			c0.399-0.899,1.1-1.3,1.999-1.3h1.7c1,0,1.601,0.4,1.601,1.101c0,0.3-0.101,0.5-0.3,0.899l-5.7,10.8l6.2,20
			c0.1,0.301,0.1,0.601,0.1,0.801c0,0.8-0.6,1.3-1.6,1.3H298.9c-1,0-1.699-0.5-2-1.5l-4.399-14.2l-2.2,4.4v9.399
			c0,1.101-0.6,1.8-1.8,1.8h-2C285.5,413.5,284.8,412.9,284.8,411.8z"/>
	</g>
	
		<path fill="#E51749" stroke="#262626" stroke-width="7" stroke-linecap="round" stroke-linejoin="round" stroke-miterlimit="10" d="
		M349,327.5H164c-11,0-20-9-20-20v-185c0-11,9-20,20-20h185c11,0,20,9,20,20v185C369,318.5,360.1,327.5,349,327.5z"/>
	<g>
		
			<path fill="#FFFFFF" stroke="#262626" stroke-width="7" stroke-linecap="round" stroke-linejoin="round" stroke-miterlimit="10" d="
			M304.199,199.7v48c0,21.7-17.6,39.3-39.3,39.3h-16.8c-21.7,0-39.3-17.6-39.3-39.3v-47.4"/>
		
			<path fill="#FFFFFF" stroke="#262626" stroke-width="7" stroke-linecap="round" stroke-linejoin="round" stroke-miterlimit="10" d="
			M208.9,200.3V154.9c0-6.601,5.301-11.9,11.9-11.9l0,0c6.6,0,11.9,5.3,11.9,11.9V200.3"/>
		
			<path fill="#FFFFFF" stroke="#262626" stroke-width="7" stroke-linecap="round" stroke-linejoin="round" stroke-miterlimit="10" d="
			M280.4,200.3V154.9c0-6.601,5.301-11.9,11.9-11.9l0,0c6.6,0,11.899,5.3,11.899,11.9V200.3"/>
		
			<path fill="#FFFFFF" stroke="#262626" stroke-width="7" stroke-linecap="round" stroke-linejoin="round" stroke-miterlimit="10" d="
			M232.7,212.6v-22.2c0-6.601,5.3-11.9,11.899-11.9l0,0c6.601,0,11.9,5.3,11.9,11.9v6.1"/>
		
			<path fill="#FFFFFF" stroke="#262626" stroke-width="7" stroke-linecap="round" stroke-linejoin="round" stroke-miterlimit="10" d="
			M256.5,214.3V190.4c0-6.601,5.3-11.9,11.899-11.9l0,0c6.601,0,11.9,5.3,11.9,11.9v29c0,6.6-5.3,11.899-11.9,11.899l0,0
			c-2.5,0-4.8-0.8-6.699-2"/>
		
			<path fill="#FFFFFF" stroke="#262626" stroke-width="7" stroke-linecap="round" stroke-linejoin="round" stroke-miterlimit="10" d="
			M208.9,226.6c0-7.7,6.301-14,14-14H250.5c6.6,0,11.899,5.3,11.899,11.899l0,0c0,6.601-5.3,11.9-11.899,11.9H231.9"/>
		
			<path fill="#FFFFFF" stroke="#262626" stroke-width="7" stroke-linecap="round" stroke-linejoin="round" stroke-miterlimit="10" d="
			M245.6,236.4c7.101,0,12.9,5.8,12.9,12.899v8.4"/>
	</g>
</g>
</svg>
