<?xml version="1.0" encoding="utf-8"?>
<!-- Generator: Adobe Illustrator 16.0.0, SVG Export Plug-In . SVG Version: 6.00 Build 0)  -->
<!DOCTYPE svg PUBLIC "-//W3C//DTD SVG 1.1//EN" "http://www.w3.org/Graphics/SVG/1.1/DTD/svg11.dtd">
<svg version="1.1" id="Layer_1" xmlns="http://www.w3.org/2000/svg" xmlns:xlink="http://www.w3.org/1999/xlink" x="0px" y="0px"
	 width="512px" height="512px" viewBox="0 0 512 512" enable-background="new 0 0 512 512" xml:space="preserve">
<g id="Layer_6">
	<g>
		<g>
			<path fill="#FFFFFF" d="M168.4,405.2V405c0-1.1,0.601-1.8,1.801-1.8h1.699c1.101,0,1.801,0.7,1.801,1.8v0.601
				c0,2.5,1.1,3.399,2.8,3.399c1.8,0,2.899-0.899,2.899-3.5c0-2.899-1.1-4.8-4.699-7.899c-4.601-4.101-6.101-6.9-6.101-10.9
				c0-5.5,2.9-8.7,8.2-8.7c5.4,0,8,3.3,8,8.5c0,1.2-0.7,1.8-1.8,1.8h-1.7c-1.1,0-1.8-0.6-1.8-1.8v-0.1c0-2.5-1-3.5-2.8-3.5
				c-1.801,0-2.801,1-2.801,3.399c0,2.5,1.2,4.4,4.801,7.601c4.6,4,6,6.8,6,11.2c0,5.699-2.9,8.899-8.301,8.899
				C171,414,168.4,410.8,168.4,405.2z"/>
			<path fill="#FFFFFF" d="M192.6,405.4v-18.8c0-5.4,2.8-8.601,8.101-8.601c5.3,0,8.1,3.2,8.1,8.601v2c0,1.1-0.7,1.8-1.8,1.8h-1.7
				c-1.1,0-1.8-0.7-1.8-1.8V386.3c0-2.3-1.101-3.3-2.8-3.3c-1.7,0-2.801,1-2.801,3.3V405.9c0,2.3,1.101,3.2,2.801,3.2
				c1.6,0,2.8-0.9,2.8-3.2V402.3c0-1.1,0.6-1.8,1.8-1.8h1.7c1.1,0,1.8,0.7,1.8,1.8v3.2c0,5.4-2.8,8.601-8.1,8.601
				C195.4,414,192.6,410.8,192.6,405.4z"/>
			<path fill="#FFFFFF" d="M217.1,411.8v-31.5c0-1.1,0.7-1.8,1.8-1.8h2c1.101,0,1.801,0.7,1.801,1.8v31.5
				c0,1.101-0.601,1.801-1.801,1.801h-2C217.8,413.5,217.1,412.9,217.1,411.8z"/>
			<path fill="#FFFFFF" d="M230.8,405.2V405c0-1.1,0.6-1.8,1.8-1.8h1.7c1.1,0,1.8,0.7,1.8,1.8v0.601c0,2.5,1.101,3.399,2.8,3.399
				c1.801,0,2.9-0.899,2.9-3.5c0-2.899-1.1-4.8-4.7-7.899c-4.6-4.101-6.1-6.9-6.1-10.9c0-5.5,2.899-8.7,8.2-8.7c5.399,0,8,3.3,8,8.5
				c0,1.2-0.7,1.8-1.801,1.8H243.7c-1.101,0-1.801-0.6-1.801-1.8v-0.1c0-2.5-1-3.5-2.8-3.5s-2.8,1-2.8,3.399
				c0,2.5,1.2,4.4,4.8,7.601c4.601,4,6,6.8,6,11.2c0,5.699-2.899,8.899-8.3,8.899S230.8,410.8,230.8,405.2z"/>
			<path fill="#FFFFFF" d="M254.4,405.2V405c0-1.1,0.601-1.8,1.801-1.8h1.699c1.101,0,1.801,0.7,1.801,1.8v0.601
				c0,2.5,1.1,3.399,2.8,3.399c1.8,0,2.899-0.899,2.899-3.5c0-2.899-1.1-4.8-4.7-7.899c-4.6-4.101-6.1-6.9-6.1-10.9
				c0-5.5,2.9-8.7,8.2-8.7c5.399,0,8,3.3,8,8.5c0,1.2-0.7,1.8-1.8,1.8h-1.7c-1.101,0-1.8-0.6-1.8-1.8v-0.1c0-2.5-1-3.5-2.8-3.5
				c-1.801,0-2.801,1-2.801,3.399c0,2.5,1.2,4.4,4.801,7.601c4.6,4,6,6.8,6,11.2c0,5.699-2.9,8.899-8.301,8.899
				C257,414,254.4,410.8,254.4,405.2z"/>
			<path fill="#FFFFFF" d="M278.5,405.2v-18.4c0-5.6,3-8.8,8.399-8.8c5.4,0,8.4,3.2,8.4,8.8v18.4c0,5.6-3,8.8-8.4,8.8
				C281.5,414,278.5,410.8,278.5,405.2z M289.7,405.6V386.5c0-2.5-1.101-3.5-2.9-3.5s-2.8,1-2.8,3.5V405.6
				c0,2.5,1.1,3.399,2.8,3.399S289.7,408.1,289.7,405.6z"/>
			<path fill="#FFFFFF" d="M303.9,411.8v-31.5c0-1.1,0.601-1.8,1.8-1.8h6.4c5.7,0,8.2,2.7,8.2,8.101v2.199
				c0,3.601-1.2,5.9-3.601,6.9v0.1c2.8,0.801,3.7,3.5,3.7,7.4v6.2c0,0.899,0,1.7,0.101,2.399c0.1,0.301,0.1,0.4,0.1,0.601
				c0,0.8-0.5,1.3-1.5,1.3h-2.2c-1,0-1.8-0.4-1.899-1.5c-0.101-0.6-0.2-1.4-0.2-2.8V403c0-3.3-0.9-4.3-3.4-4.3H309.5V412
				c0,1.101-0.7,1.8-1.801,1.8h-2C304.6,413.5,303.9,412.9,303.9,411.8z M311.4,393.5c2,0,3.3-0.899,3.3-3.7V387.1
				c0-2.5-0.8-3.601-2.8-3.601h-2.5v10H311.4L311.4,393.5z"/>
			<path fill="#FFFFFF" d="M328.1,405.2V405c0-1.1,0.7-1.8,1.8-1.8h1.7c1.1,0,1.8,0.7,1.8,1.8v0.601c0,2.5,1.101,3.399,2.8,3.399
				c1.7,0,2.9-0.899,2.9-3.5c0-2.899-1.101-4.8-4.7-7.899c-4.6-4.101-6.1-6.9-6.1-10.9c0-5.5,2.8-8.7,8.199-8.7c5.4,0,8,3.3,8,8.5
				c0,1.2-0.699,1.8-1.8,1.8H341c-1.101,0-1.801-0.6-1.801-1.8v-0.1c0-2.5-1-3.5-2.8-3.5s-2.8,1-2.8,3.399c0,2.5,1.2,4.4,4.8,7.601
				c4.601,4,6,6.8,6,11.2c0,5.699-2.899,8.899-8.3,8.899S328.1,410.8,328.1,405.2z"/>
		</g>
	</g>
	
		<path fill="#FF8DC6" stroke="#262626" stroke-width="7" stroke-linecap="round" stroke-linejoin="round" stroke-miterlimit="10" d="
		M349,327.5H164c-11,0-20-9-20-20v-185c0-11,9-20,20-20h185c11,0,20,9,20,20v185C369,318.5,360,327.5,349,327.5z"/>
	<g id="scissor_1_">
		
			<line fill="none" stroke="#262626" stroke-width="7" stroke-linecap="round" stroke-linejoin="round" stroke-miterlimit="10" x1="258.3" y1="241.2" x2="269.5" y2="254.3"/>
		
			<path fill="#FFFFFF" stroke="#262626" stroke-width="7" stroke-linecap="round" stroke-linejoin="round" stroke-miterlimit="10" d="
			M256.5,203.5L209.1,143c-8.3,15.2-6.1,34.601,5.3,47.101L241.5,221.5"/>
		
			<line fill="none" stroke="#262626" stroke-width="7" stroke-linecap="round" stroke-linejoin="round" stroke-miterlimit="10" x1="285.9" y1="241.2" x2="272.8" y2="224.5"/>
		
			<path fill="#FFFFFF" stroke="#262626" stroke-width="7" stroke-linecap="round" stroke-linejoin="round" stroke-miterlimit="10" d="
			M228.6,241.2l76.8-98.2c8.3,15.2,6.101,34.601-5.3,47.101L243.2,257.5"/>
		
			<path fill="#FFFFFF" stroke="#262626" stroke-width="7" stroke-linecap="round" stroke-linejoin="round" stroke-miterlimit="10" d="
			M258.1,219.9c0.9,0,1.601,0.7,1.601,1.6c0,0.9-0.7,1.601-1.601,1.601c-0.899,0-1.6-0.7-1.6-1.601
			C256.5,220.6,257.2,219.9,258.1,219.9"/>
		
			<circle fill="#FFFFFF" stroke="#262626" stroke-width="7" stroke-linecap="round" stroke-linejoin="round" stroke-miterlimit="10" cx="220.5" cy="264.1" r="22.9"/>
		
			<circle fill="#FFFFFF" stroke="#262626" stroke-width="7" stroke-linecap="round" stroke-linejoin="round" stroke-miterlimit="10" cx="220.5" cy="264.1" r="9.8"/>
		
			<circle fill="#FFFFFF" stroke="#262626" stroke-width="7" stroke-linecap="round" stroke-linejoin="round" stroke-miterlimit="10" cx="292.5" cy="264.1" r="22.9"/>
		
			<circle fill="#FFFFFF" stroke="#262626" stroke-width="7" stroke-linecap="round" stroke-linejoin="round" stroke-miterlimit="10" cx="292.5" cy="264.1" r="9.8"/>
	</g>
</g>
</svg>
